<svg xmlns="http://www.w3.org/2000/svg" width="100" height="100"><g transform="scale(0.015, 0.015)"><path fill="rgba(0,0,0,0.4)" d="M1114 214q-19 -22 -40 -41q-22 -19 -57 -44l-26 -19q-61 -45 -161 -78q-100 -32 -190 -32q-90 0 -190 32q-100 33 -181 92q-81 59 -141 140q-61 82 -94 184q-34 102 -34 192q0 90 34 192q33 102 80 166l9 11q38 52 69 83q30 30 78 65q49 35 86 53q37 19 96 38l20 6q78 26 168 26q90 0 168 -26l23 -7q56 -18 91 -35q36 -17 70 -40q33 -23 57 -42q24 -20 49 -46q25 -27 57 -71l5 -7q36 -50 58 -94q21 -45 41 -116l1 -2q20 -74 20 -154q0 -80 -32 -184q-31 -103 -73 -161l-16 -22q-26 -36 -45 -59M620 342l40 0l230 458l-500 0l230 -458"/></g></svg>