<svg xmlns="http://www.w3.org/2000/svg" xmlns:xlink="http://www.w3.org/1999/xlink" xmlns:sketch="http://www.bohemiancoding.com/sketch/ns" width="20.0px" height="20px" viewBox="0 0 512 512" version="1.1">
    <title>Slice 1</title>
    <description>Created with Sketch (http://www.bohemiancoding.com/sketch)</description>
    <defs/>
    <g id="Page 1" fill="rgba(0,0,0,.4)" fill-rule="evenodd">
        <path d="M54.629096,105.370904 L105.370904,54.629096 C117.868609,42.1313914 138.131548,42.1315476 150.621982,54.6219817 L256,160 L361.378018,54.6219817 C373.868452,42.1315476 394.131391,42.1313914 406.629096,54.629096 L457.370904,105.370904 C469.862525,117.862525 469.871794,138.128206 457.378018,150.621982 L352,256 L457.378018,361.378018 C469.871794,373.871794 469.862525,394.137475 457.370904,406.629096 L406.629096,457.370904 C394.131391,469.868609 373.868452,469.868452 361.378018,457.378018 L256,352 L150.621982,457.378018 C138.131548,469.868452 117.868609,469.868609 105.370904,457.370904 L54.629096,406.629096 C42.1374754,394.137475 42.1282062,373.871794 54.6219817,361.378018 L160,256 L54.6219817,150.621982 C42.1282062,138.128206 42.1374754,117.862525 54.629096,105.370904 Z M54.629096,105.370904" id="Close" fill="rgba(0,0,0,.4)"/>
    </g>
</svg>