<svg xmlns="http://www.w3.org/2000/svg" xmlns:xlink="http://www.w3.org/1999/xlink" version="1.1" id="Layer_1" x="0px" y="0px" width="16px" height="16px" viewBox="19.785 65.718 63.181 100" enable-background="new 19.785 65.718 63.181 100" xml:space="preserve">
<path fill="rgba(0,0,0,.4)" d="M67.463,129.923C54.3,148.789,52.398,164.73,52.398,164.73c-0.292,1.316-1.462,1.316-1.755,0  c0,0-2.486-15.941-15.356-34.808c-10.676-14.918-15.502-20.769-15.502-32.907c0-17.404,13.894-31.298,31.444-31.298  c17.404,0,31.737,13.894,31.737,31.298C82.966,109.154,73.605,121.001,67.463,129.923z M63.66,97.601  c0-6.728-5.265-11.992-12.139-11.992c-6.436,0-11.847,5.265-11.847,11.992s5.411,12.432,11.847,12.432  C58.396,110.032,63.66,104.328,63.66,97.601z"/>
</svg>