<svg xmlns="http://www.w3.org/2000/svg" xmlns:xlink="http://www.w3.org/1999/xlink" version="1.1" x="0px" y="0px" width="12px" height="12px" viewBox="0 0 100 100" enable-background="new 0 0 100 100" xml:space="preserve">
<g id="Captions">
</g>
<g id="Your_Icon">
	<g>
		<path fill="#ffffff" d="M87.092,40.527c-2.281-6.219-6.643-11.717-12.774-15.342c-0.095-0.057-0.185-0.112-0.278-0.165    L53.706,13.281V5.396c0-1.489-0.604-2.837-1.58-3.816C51.15,0.604,49.799,0,48.31,0c-2.983,0-5.396,2.417-5.396,5.396v1.651V25.85    v2.676v14.981v29.915c-0.987-0.375-2.023-0.698-3.104-0.961c-0.454-0.116-0.911-0.218-1.381-0.308    c-1.91-0.376-3.937-0.578-6.03-0.578c-11.773,0-21.32,6.361-21.32,14.212c0,7.848,9.547,14.213,21.32,14.213    c11.772,0,21.316-6.365,21.316-14.213c0-0.06,0-0.124-0.004-0.184v-1.82h-0.004c0-0.004,0-0.011,0-0.015v-3.712v-0.169V39.143    V34.76l11.034,6.368c0.089,0.053,0.184,0.105,0.277,0.154l-0.012,0.026c0.301,0.15,0.597,0.314,0.894,0.483    c7.569,4.372,11.292,12.854,9.971,20.998l0.188,0.03c-0.346,1.895,0.507,3.884,2.271,4.904c2.15,1.242,4.875,0.585,6.241-1.445    c0.056-0.09,0.116-0.18,0.169-0.273c0.007-0.015,0.019-0.033,0.025-0.049c0.057-0.094,0.113-0.188,0.169-0.285    C89.523,57.716,90.026,48.525,87.092,40.527z"/>
	</g>
</g>
</svg>